<svg width="25" height="24" viewBox="0 0 25 24" fill="none" xmlns="http://www.w3.org/2000/svg">
<path d="M5.40985 3.88524H23.6033C23.7137 3.88524 23.8033 3.97478 23.8033 4.08524V10.9357C23.8033 11.0305 23.7368 11.1122 23.6441 11.1315L6.49182 14.7049" stroke="black"/>
<path d="M2.16394 20.8361C2.16394 22.0312 3.13277 23 4.32787 23C5.52298 23 6.49181 22.0312 6.49181 20.8361C6.49181 19.641 5.52298 18.6721 4.32787 18.6721C3.13277 18.6721 2.16394 19.641 2.16394 20.8361Z" stroke="black"/>
<path d="M19.4754 20.8361C19.4754 22.0312 20.4442 23 21.6393 23C22.8344 23 23.8033 22.0312 23.8033 20.8361C23.8033 19.641 22.8344 18.6721 21.6393 18.6721C20.4442 18.6721 19.4754 19.641 19.4754 20.8361Z" stroke="black"/>
<path d="M0 1H4.86913C4.97148 1 5.05731 1.07727 5.06803 1.17906L6.4861 14.6508C6.48984 14.6862 6.48403 14.722 6.46928 14.7545L4.81705 18.3894C4.75686 18.5218 4.85367 18.6721 4.99913 18.6721H22" stroke="black"/>
</svg>
